<svg width="358" height="39" viewBox="0 0 358 39" fill="none" xmlns="http://www.w3.org/2000/svg">
<path d="M1.41721 21.9787C3.39215 20.6872 6.2408 19.8204 8.48389 19.4167C9.1589 19.299 9.06292 19.9909 9.5405 19.9364C10.4684 19.8326 11.22 19.2332 12.1305 19.2034C12.4412 19.1936 12.4244 20.2265 12.7416 20.196C14.5106 20.0124 15.9005 19.2788 17.6239 18.9356C25.947 17.3168 33.8215 15.762 42.0954 14.5901C44.7916 14.2097 48.1943 14.4981 50.9439 13.676C51.2561 13.5804 50.9335 12.7734 50.9834 12.6947C51.777 11.4876 51.7229 13.2281 52.3846 13.3562C55.0441 13.8563 57.7961 13.5562 60.2088 12.9282C61.2074 12.6627 59.9822 11.1164 61.1252 11.9295C61.2043 11.9843 61.0528 12.9091 61.3442 12.9707C62.0032 13.1084 63.1993 12.8086 63.7084 12.8242C64.6885 12.8583 64.8507 12.832 65.7429 12.7483C66.9689 12.6419 68.4853 12.9428 69.8091 12.6184C70.0842 12.5472 69.6307 11.6616 70.0638 11.4651C70.4966 11.2684 71.6969 11.244 72.1199 11.428C72.5423 11.6116 72.4289 12.3486 72.5139 12.5084C73.211 13.8582 74.4524 11.8143 74.6335 11.7534C77.7935 10.6988 80.6883 11.6385 83.7265 11.4974C86.0797 11.3863 88.4799 10.9402 90.7319 10.9381C93.3188 10.9418 95.6224 11.4148 98.1291 11.3254C98.3972 11.3171 98.0817 10.2325 98.4101 10.2204C101.928 10.0933 105.388 10.2643 108.863 11.1012C109.206 11.186 108.732 12.1245 109.073 12.2663C111.158 13.1093 114.452 15.1331 115.893 11.0563C117.32 11.289 119.076 11.5559 120.323 12.4718C121.111 13.0605 120.247 14.0451 121.283 13.6682C121.517 13.5846 121.28 12.6584 121.628 12.6019C123.092 12.3649 124.659 12.774 126.145 12.4195C126.448 12.3453 126.431 11.5273 126.527 11.3877C127.318 10.2586 128.308 12.3106 128.547 12.4743C130.147 13.5471 131.451 13.4574 132.968 13.5562C133.181 13.5702 133.398 13.5877 133.619 13.6123C134.039 13.6594 133.648 12.5228 134.055 12.529C136.163 12.5756 138.268 12.8742 140.173 13.5466C140.596 13.6987 140.107 14.5873 140.305 14.7074C141.177 15.2258 141.598 13.4989 142.469 13.9654C142.655 14.0616 142.469 14.8449 142.496 14.9355C142.913 16.3574 143.575 14.4642 143.72 14.435C145.55 14.0221 146.452 16.1529 148.149 16.028C148.362 16.0119 147.987 14.9618 148.58 14.978C152.504 15.0781 156.456 15.7381 160.141 16.9003C160.704 17.0787 160.222 17.7942 160.249 17.8907C160.702 19.4006 161.257 17.4882 161.46 17.4335C163.065 17.0535 164.325 18.8204 165.558 16.5958C171.886 18.0025 178.322 17.2774 184.474 19.8802C184.554 19.9111 184.328 20.8593 184.488 20.9167C186.404 21.6165 186.146 20.0925 187.556 18.3677C187.91 17.9346 188.689 20.2135 188.781 20.383C189.058 21.0035 188.612 22.4067 188.711 22.5305C189.537 23.505 189.757 18.7679 190.938 18.8551C190.974 18.8657 190.754 19.7242 190.847 19.8182C191.134 20.1128 191.463 19.7895 191.739 20.1109C192.377 20.8544 192.412 23.1669 193.601 21.907C193.748 21.7427 193.735 19.0468 194.786 19.2466C195.213 19.3298 197.037 19.4044 197.547 19.6104C198.066 19.8175 197.648 20.6594 197.683 20.6993C199.037 21.9315 198.467 22.3717 199.075 24.1079C199.683 25.8368 199.722 21.801 200.032 21.3684C200.348 20.9376 201.287 21.937 201.541 22.2794C201.781 22.6217 201.43 23.1542 201.649 23.3523C203.104 24.6463 202.418 21.3891 202.946 20.7757C204.188 19.3215 204.884 22.3462 205.974 22.6853C206.261 22.7764 206.053 22.0864 206.313 22.0334C207.341 21.8315 207.908 22.7862 209.076 21.9685C209.274 21.8357 210.262 20.0677 210.824 21.4012C210.904 21.5935 210.643 22.3321 211.069 22.5098C211.704 22.7766 212.851 22.963 213.56 22.7243C214.076 22.5477 213.507 21.312 214.144 21.7022C214.427 21.8761 213.889 22.5874 214.423 22.8541C214.956 23.1213 216.308 23.0992 216.84 23.0743C217.363 23.0496 217.077 22.1181 217.119 22.0554C217.375 21.6969 218.362 21.245 218.448 21.2451C222.841 21.107 226.975 22.5285 231.253 21.7272C231.588 21.6655 231.298 20.7007 231.348 20.6812C232.473 20.1923 231.74 22.8595 232.617 23.6738C232.359 21.6944 232.86 22.0215 233.655 21.7415C234.038 21.6047 233.765 20.852 233.795 20.7705C234.28 19.5574 234.804 21.0326 234.936 21.3325C235.416 22.4358 235.728 21.0585 236.055 21.7942C236.381 22.5241 235.877 23.693 236.655 23.61C236.81 22.8802 236.07 21.0748 236.63 20.7216C238.745 19.3931 243.065 20.3982 244.86 20.3313C246.693 20.2651 247.229 20.0627 248.306 20.1855C250.255 20.4036 249.409 19.1182 250.478 18.338C251.547 17.556 251.443 21.0028 251.707 21.7053C251.97 22.4075 252.05 21.6372 252.31 22.0073C252.571 22.3772 252.191 22.9311 252.698 23.0142C253.202 23.0977 254.375 21.6209 254.442 20.8387C254.571 19.184 253.747 17.5836 255.087 17.9968C255.165 18.0215 255.055 18.9409 255.346 18.9907C257.689 19.3521 259.983 19.0553 262.351 19.3121C262.678 19.3485 262.547 20.3753 262.739 20.4076C264.685 20.755 263.763 19.1978 264.494 17.1993C264.646 19.686 265.428 21.102 266.869 20.8929C267.735 20.7679 267.438 19.7175 267.852 18.88C267.976 18.6275 268.682 19.27 268.711 18.7496C268.809 17.0479 267.953 15.2952 269.52 15.8001C269.589 15.8249 269.527 16.7577 269.757 16.7774C271.233 16.9103 271.206 15.1504 272.662 14.705C273.696 14.3906 275.663 14.921 277.117 14.9925C277.285 15.0015 277.445 15.0043 277.594 14.9987C278.009 17.7573 279.219 16.9152 279.436 14.9315C280.345 14.864 281.266 14.6038 282.19 14.7218C282.504 14.7622 282.438 15.5914 282.49 15.6713C283.29 16.9273 283.375 15.017 283.556 14.9129C285.505 13.8693 287.481 14.9779 289.215 13.2805C289.276 13.2195 289.067 11.29 289.841 12.5941C289.892 12.6844 289.375 13.6658 290.332 13.5733C291.298 13.4794 293.196 14.2101 294.372 13.0968C294.653 12.8292 295.183 11.1419 296.027 12.2431C296.14 12.3929 296.142 12.9565 296.317 13.2401C296.881 14.1424 296.754 12.1767 297.508 13.7343C298.266 15.2912 299.466 16.347 300.57 14.9873C300.606 14.9471 300.645 13.3643 301.056 13.3166C301.732 13.2386 302.728 13.3904 303.411 13.2585C303.737 13.1948 303.359 12.2833 303.412 12.2558C305.526 11.3299 307.227 11.8963 309.692 11.8247C310.146 11.8131 311.122 10.2975 312.174 11.1595C313.306 12.1062 313.229 16.9342 315.135 15.4321C315.905 14.8293 315.907 8.72118 317.992 11.491C320.849 10.1639 323.901 11.1937 326.662 9.52453C326.787 9.45008 326.894 7.72069 327.215 7.68002C327.693 7.6226 328.102 8.33934 328.444 8.32347C329.876 8.27705 331.033 7.3591 332.406 7.18423C332.929 7.11556 332.913 7.9455 333.531 7.86445C334.145 7.78341 334.331 6.6562 335.273 6.9861C335.987 7.23831 337.02 9.24874 337.931 9.31615C337.518 7.20623 338.11 7.12702 338.98 6.3614C339.155 6.2115 338.786 5.52512 338.861 5.41642C339.162 4.95776 339.641 5.48931 339.907 5.00279C339.972 4.88573 339.822 4.16715 339.866 4.03099C340.222 2.84861 341.572 4.24544 341.802 4.48928C342.691 5.41307 342.758 4.4207 343.369 4.72659C343.967 5.03498 343.327 5.72645 343.973 5.85112C345.293 6.11242 346.8 5.65306 348.056 5.40006C348.544 5.29743 347.994 4.41821 348.059 4.38133C348.994 3.91208 350.256 4.688 350.376 2.65405C352.25 7.39704 350.848 2.04149 352.54 2.67342C352.669 2.72617 353.377 5.01067 353.025 5.45608C352.663 5.90368 351.832 5.33528 351.35 6.01012C351.231 6.1702 350.914 8.54148 350.836 8.69857C350.194 9.93537 349.248 6.49249 349.159 6.31209C348.179 4.3689 347.697 6.94992 347.461 7.17386C346.439 8.18772 345.281 7.9318 344.38 8.68834C343.769 9.18334 344.229 11.474 343.688 11.5191C341.866 11.6744 340.607 8.61124 339.549 11.7258C339.323 12.3897 340.21 14.8125 338.52 13.1173C338.404 13.0123 337.103 11.409 336.801 12.6587C336.763 12.8163 336.917 13.5443 336.84 13.6243C336.323 14.1451 335.774 13.6536 335.196 14.0629C334.609 14.474 333.888 15.0543 333.089 14.9595C332.615 14.9021 331.762 13.6604 331.478 13.3715C330.675 12.5365 330.321 14.2432 329.724 13.1553C329.113 12.0638 329.494 10.1443 328.356 9.58806C328.698 11.4913 329.003 13.4541 329.324 15.3727C327.097 15.7483 324.847 15.5528 322.658 16.0629C322.385 16.1285 322.864 17.0945 322.576 17.1912C321.376 17.5908 320.167 17.0678 318.931 17.6028C318 18.0159 317.107 19.3041 316.114 19.7719C315.087 17.7133 313.684 18.7384 312.522 18.7469C312.123 18.7493 312.041 18.1635 311.731 18.0245C310.559 17.5148 311.4 19.3482 311.168 19.7034C310.169 21.221 309.248 16.891 307.834 17.2581C307.76 17.276 307.237 19.7673 307.131 19.9355C306.47 21.0277 306.849 19.1522 306.297 19.0742C305.282 18.9327 304.558 18.4897 303.566 19.3677C303.282 19.626 302.744 21.2143 301.928 20.2032C301.821 20.0709 301.731 19.2952 301.657 19.2617C300.336 18.7213 300.725 21.1401 300.18 22.0778C299.631 23.0158 298.271 21.5357 297.98 21.0913C297.205 19.9459 298.316 20.4861 298.325 20.359C298.427 18.8467 297.709 19.2288 297.1 19.2078C296.606 16.8555 295.808 17.1396 296.469 19.1956C296.543 19.4199 296.963 19.1201 297.1 19.2078C296.987 21.6192 296.128 22.0737 294.741 20.0768C294.092 19.1405 294.339 17.8777 292.997 18.5531C292.386 18.8586 292.913 20.4468 292.417 20.9884C291.267 22.227 289.336 20.9873 288.024 21.4525C287.547 21.6214 288.175 22.4347 287.854 22.5809C286.993 22.9732 286.116 22.43 285.284 22.9199C285.209 22.9654 285.56 23.8681 285.285 23.9256C283.188 24.3826 281.289 24.0768 279.072 24.4168C278.941 24.437 278.798 24.4672 278.645 24.5047C277.54 24.7759 276.017 25.4154 275.055 25.4755C273.215 25.5906 270.522 24.6213 269.016 25.1954C268.02 25.568 268.364 26.4737 268.008 27.1828C267.3 28.5602 265.408 26.5826 265.152 26.2704C265.143 26.2602 266.016 25.8998 265.458 25.4933C265.023 24.5344 265.162 26.2644 265.152 26.2704C264.987 26.0692 263.142 26.1328 262.787 26.3693C262.602 26.4974 262.848 27.3685 262.749 27.4185C260.429 28.5814 257.959 29.1751 255.446 29.104C255.398 29.0924 255.326 28.088 255.216 28.073C253.68 27.8372 252.927 29.18 251.844 30.0608C250.731 30.9448 249.725 30.8277 248.806 29.2057C247.946 29.5338 246.527 28.9392 245.725 28.5679C244.922 28.1968 245.046 30.1504 244.984 30.1967C243.073 31.6615 241.722 30.6823 239.554 30.7206C238.507 30.7378 236.515 31.2019 235.398 31.5049C234.524 31.748 233.961 31.331 233.167 31.6819C233.059 31.7288 233.233 32.5893 233.201 32.6252C232.353 33.7292 232.649 31.5743 232.434 31.2083C231.656 29.8752 231.196 29.1688 230.078 29.8862C229.824 30.0504 229.205 33.1546 228.715 33.3588C228.081 33.6184 228.271 32.5093 227.61 32.8069C227.553 32.8312 227.597 33.508 227.178 33.4967C225.239 33.453 223.111 33.1238 221.114 33.2245C220.839 33.2356 221.21 34.3048 220.812 34.3385C218.935 34.4952 216.893 34.4599 215.094 33.9404C214.653 33.8091 214.937 33.059 214.843 32.8346C214.273 31.4771 213.41 33.4294 213.267 33.4644C209.948 34.3527 207.504 32.4924 204.129 33.188C203.953 33.2302 202.463 35.2679 201.925 33.4305C201.888 33.3083 201.368 31.4308 200.746 32.6623C200.712 32.7395 201.032 33.71 200.382 33.5772C199.736 33.4448 198.635 34.0178 197.775 32.9176C197.512 32.5716 196.898 30.6867 195.979 32.0998C195.922 32.1992 194.387 35.4282 194.063 33.1076C194.01 32.7256 194.261 30.3117 193.14 31.4806C192.925 31.7072 193.249 32.2725 192.7 32.5726C191.836 33.0338 190.904 32.3147 189.844 33.3193C189.662 33.4976 188.815 35.0852 188.322 33.7938C188.245 33.5915 188.482 32.7974 188.179 32.6831C186.737 32.1359 185.254 32.5609 183.799 31.8791C183.288 31.6394 183.666 30.3568 183.143 29.9614C182.612 29.5654 181.605 29.1422 180.987 29.6901C180.375 30.2389 180.813 32.3707 179.954 32.4649C176.158 32.8676 172.626 31.3199 169.05 30.8101C168.508 30.7332 168.892 31.5187 168.084 31.4581C165.111 31.2394 159.915 31.4503 157.597 29.634C155.679 28.1736 158.34 27.4564 156.828 26.792C156.096 26.4741 155.035 28.8095 154.841 28.8677C152.921 29.4626 151.906 28.2849 150.257 28.4568C149.92 28.493 150.149 29.5031 149.863 29.5231C148.885 29.5999 147.903 29.0639 146.952 29.0524C146.524 29.0494 146.543 29.8059 146.176 29.7121C145.307 29.4973 144.55 29.1067 143.741 28.3209C143.667 28.2493 144.296 27.3717 143.633 27.2725C142.559 27.1145 141.268 26.2916 139.918 26.8811C139.514 27.0586 139.339 28.7663 138.679 27.5112C138.539 27.2489 138.948 25.2177 137.868 26.9022C137.688 27.1822 135.92 29.4242 135.302 27.8086C135.14 27.3834 134.787 25.6546 134.312 25.8749C134.247 25.9111 134.402 26.8525 134.021 26.9059C133.252 27.0044 132.468 26.9701 131.672 26.9515C131.103 26.94 130.532 26.9391 129.962 27.0106C129.607 27.0572 130.038 28.0548 129.512 28.0942C128.062 28.2038 126.335 27.814 124.967 27.408C124.459 27.2562 124.878 26.496 124.847 26.4073C124.347 24.9654 123.846 26.8217 123.638 26.9167C122.347 27.4821 121.469 26.5323 120.319 26.6926C120.002 26.7347 120.166 27.6475 120.099 27.7236C119.406 28.4653 119.988 26.8822 119.591 26.6786C118.465 26.102 117.156 26.0991 115.986 26.1533C115.556 26.1746 115.982 27.2421 115.598 27.2493C113.348 27.3135 110.946 27.1147 108.767 26.4715C108.356 26.3485 108.641 25.553 108.56 25.3668C108.004 24.0644 107.064 25.7921 106.856 25.954C105.908 26.6928 105.567 25.9744 104.749 26.0911C100.796 26.6712 95.867 26.2047 92.1241 25.9939C87.2192 25.7231 83.4057 25.1193 78.7493 25.6096C78.4536 25.6401 78.8206 26.6882 78.5675 26.7283C75.3305 27.196 72.0779 27.0404 68.8086 27.6743C68.543 27.7243 69.0286 28.6947 68.6072 28.8088C67.7395 29.0505 66.656 29.1092 65.7087 28.8887C65.254 28.7824 65.7451 27.8524 65.2884 27.7632C64.2246 27.554 63.1242 27.6109 62.1132 27.9C61.6823 28.0255 62.4771 28.9714 61.9006 29.0553C57.9556 29.6541 54.2085 30.388 50.0321 29.7472C49.7473 29.7031 49.1641 27.6651 48.6404 28.1685C48.6987 28.7522 48.8218 29.4291 48.9122 30.0479C43.3122 31.3883 37.6006 31.8713 32.0486 33.2124C31.8185 33.2683 32.4971 34.2441 32.0555 34.3575C29.4141 35.0405 27.0767 36.0337 24.116 35.8053C23.8279 35.7831 23.36 33.8691 22.6968 34.3948C22.5978 34.4824 21.486 35.1235 21.3379 35.6249C21.3189 35.6992 21.8166 36.4989 21.4619 36.6467C19.3963 37.4913 17.1449 38.0917 14.9089 38.3916C14.5457 38.4392 14.5292 37.3923 14.2662 37.4191C12.4141 37.6114 10.9214 39.0814 9.07392 39.006C7.81404 38.9674 7.44896 37.2638 6.12027 36.0802C5.92494 35.9162 5.26678 36.2271 4.77298 35.3971C3.5121 33.3161 2.57583 30.7951 1.19745 28.5957C0.893398 28.1228 0.200407 29.1988 0.126983 27.6947C0.119594 27.5937 0.650311 26.7936 0.635344 26.2858C0.623011 25.9345 -0.0847788 25.1967 0.00833416 24.6896C0.117343 24.1754 0.774805 24.7623 1.00281 24.1143C1.23708 23.459 0.527576 22.5582 1.41721 21.9787ZM242.125 26.8946C241.334 26.035 241.592 29.4664 242.259 28.5675C242.291 28.5199 242.166 26.9366 242.125 26.8946ZM324.347 13.0047C323.188 11.6853 323.006 13.9928 323.852 15.022C324.697 16.05 324.7 13.4043 324.347 13.0047ZM333.293 10.0847C332.013 9.12592 332.821 13.939 333.745 12.7434C333.799 12.6755 333.368 10.1403 333.293 10.0847ZM8.52466 34.3709C8.49557 34.3336 7.99846 34.5174 8.00831 34.5633C8.22567 35.668 9.20204 35.3074 8.52466 34.3709ZM342.1 6.99323C341.631 6.4202 340.874 7.36317 341.442 8.07977C341.897 8.6568 342.681 7.70682 342.1 6.99323ZM205.933 24.364C205.925 24.3124 205.523 24.2492 205.519 24.5389C205.506 25.4726 206.08 25.2331 205.933 24.364ZM357.421 3.33622C355.074 3.76012 352.797 0.165902 355.317 0.000529051C355.781 -0.0329329 354.681 1.48844 355.324 1.69959C356.549 2.06992 356.551 -0.544096 357.935 0.481094C358.208 0.664471 357.547 3.32502 357.418 3.34271C357.419 3.34054 357.42 3.33838 357.421 3.33622ZM241.289 22.8292C241.27 22.7856 240.719 22.8003 240.711 22.8464C240.528 23.9637 241.641 23.9344 241.289 22.8292ZM182.927 20.6954C182.908 20.5967 181.662 20.4004 181.611 20.4855C180.804 22.2093 183.329 22.612 182.927 20.6954ZM277.628 15.0687C278.052 13.8878 278.741 13.6454 279.433 14.9306C278.833 14.9537 278.237 15.0392 277.628 15.0687Z" fill="#2B6068"/>
</svg>
