<svg width="98" height="27" viewBox="0 0 98 27" fill="none" xmlns="http://www.w3.org/2000/svg">
<path d="M8.52264 26.9318C6.85218 26.9318 5.37491 26.6591 4.09082 26.1136C2.81809 25.5568 1.81809 24.7159 1.09082 23.5909C0.363548 22.4659 -8.87215e-05 21.0341 -8.87215e-05 19.2955C-8.87215e-05 17.8636 0.244229 16.6421 0.732866 15.6307C1.2215 14.608 1.90332 13.7727 2.77832 13.125C3.65332 12.4773 4.67037 11.983 5.82946 11.6421C6.99991 11.3011 8.26128 11.0796 9.61355 10.9773C11.0795 10.8636 12.2556 10.7273 13.142 10.5682C14.0397 10.3977 14.6874 10.1648 15.0851 9.86933C15.4829 9.56251 15.6817 9.1591 15.6817 8.6591V8.59092C15.6817 7.9091 15.4204 7.38637 14.8976 7.02274C14.3749 6.6591 13.7045 6.47728 12.8863 6.47728C11.9885 6.47728 11.2556 6.67614 10.6874 7.07387C10.1306 7.46024 9.79537 8.05683 9.68173 8.86364H1.02264C1.13627 7.27273 1.64196 5.80683 2.53968 4.46592C3.44877 3.11364 4.77264 2.0341 6.51128 1.22728C8.24991 0.4091 10.4204 8.58307e-06 13.0226 8.58307e-06C14.8976 8.58307e-06 16.5795 0.2216 18.0681 0.664782C19.5567 1.0966 20.8238 1.70455 21.8692 2.48864C22.9147 3.26137 23.7101 4.17046 24.2556 5.21592C24.8124 6.25001 25.0908 7.37501 25.0908 8.59092V26.5227H16.2954V22.8409H16.0908C15.5681 23.8182 14.9317 24.608 14.1817 25.2102C13.4431 25.8125 12.5965 26.25 11.642 26.5227C10.6988 26.7955 9.659 26.9318 8.52264 26.9318ZM11.5908 21C12.3067 21 12.9772 20.8523 13.6022 20.5568C14.2385 20.2614 14.7556 19.8352 15.1533 19.2784C15.551 18.7216 15.7499 18.0455 15.7499 17.25V15.0682C15.4999 15.1705 15.2329 15.2671 14.9488 15.358C14.676 15.4489 14.3806 15.5341 14.0624 15.6136C13.7556 15.6932 13.426 15.7671 13.0738 15.8352C12.7329 15.9034 12.3749 15.9659 11.9999 16.0227C11.2726 16.1364 10.676 16.3239 10.2101 16.5852C9.75559 16.8352 9.41468 17.1477 9.18741 17.5227C8.9715 17.8864 8.86355 18.2955 8.86355 18.75C8.86355 19.4773 9.11923 20.0341 9.63059 20.4205C10.142 20.8068 10.7954 21 11.5908 21ZM29.1066 26.5227V0.340917H38.0384V5.31819H38.3111C38.8566 3.68183 39.7884 2.38637 41.1066 1.43182C42.4247 0.477281 43.9929 8.58307e-06 45.8111 8.58307e-06C47.652 8.58307e-06 49.2372 0.488645 50.5668 1.46592C51.8963 2.43183 52.6975 3.71592 52.9702 5.31819H53.2429C53.6861 3.71592 54.6293 2.43183 56.0725 1.46592C57.5157 0.488645 59.2088 8.58307e-06 61.152 8.58307e-06C63.6634 8.58307e-06 65.6975 0.806827 67.2543 2.42046C68.8225 4.0341 69.6066 6.18183 69.6066 8.86364V26.5227H60.1975V11.25C60.1975 10.1023 59.9077 9.20455 59.3282 8.55683C58.7486 7.89774 57.9702 7.56819 56.9929 7.56819C56.027 7.56819 55.26 7.89774 54.6918 8.55683C54.135 9.20455 53.8566 10.1023 53.8566 11.25V26.5227H44.8566V11.25C44.8566 10.1023 44.5668 9.20455 43.9872 8.55683C43.4077 7.89774 42.6293 7.56819 41.652 7.56819C41.0043 7.56819 40.4475 7.71592 39.9816 8.01137C39.5157 8.30683 39.152 8.73296 38.8907 9.28978C38.6407 9.83524 38.5157 10.4886 38.5157 11.25V26.5227H29.1066ZM81.0626 26.9318C79.3922 26.9318 77.9149 26.6591 76.6308 26.1136C75.3581 25.5568 74.3581 24.7159 73.6308 23.5909C72.9035 22.4659 72.5399 21.0341 72.5399 19.2955C72.5399 17.8636 72.7842 16.6421 73.2729 15.6307C73.7615 14.608 74.4433 13.7727 75.3183 13.125C76.1933 12.4773 77.2104 11.983 78.3695 11.6421C79.5399 11.3011 80.8013 11.0796 82.1535 10.9773C83.6195 10.8636 84.7956 10.7273 85.682 10.5682C86.5797 10.3977 87.2274 10.1648 87.6251 9.86933C88.0229 9.56251 88.2217 9.1591 88.2217 8.6591V8.59092C88.2217 7.9091 87.9604 7.38637 87.4376 7.02274C86.9149 6.6591 86.2445 6.47728 85.4263 6.47728C84.5285 6.47728 83.7956 6.67614 83.2274 7.07387C82.6706 7.46024 82.3354 8.05683 82.2217 8.86364H73.5626C73.6763 7.27273 74.182 5.80683 75.0797 4.46592C75.9888 3.11364 77.3126 2.0341 79.0513 1.22728C80.7899 0.4091 82.9604 8.58307e-06 85.5626 8.58307e-06C87.4376 8.58307e-06 89.1195 0.2216 90.6081 0.664782C92.0967 1.0966 93.3638 1.70455 94.4092 2.48864C95.4547 3.26137 96.2501 4.17046 96.7956 5.21592C97.3524 6.25001 97.6308 7.37501 97.6308 8.59092V26.5227H88.8354V22.8409H88.6308C88.1081 23.8182 87.4717 24.608 86.7217 25.2102C85.9831 25.8125 85.1365 26.25 84.182 26.5227C83.2388 26.7955 82.199 26.9318 81.0626 26.9318ZM84.1308 21C84.8467 21 85.5172 20.8523 86.1422 20.5568C86.7785 20.2614 87.2956 19.8352 87.6933 19.2784C88.091 18.7216 88.2899 18.0455 88.2899 17.25V15.0682C88.0399 15.1705 87.7729 15.2671 87.4888 15.358C87.216 15.4489 86.9206 15.5341 86.6024 15.6136C86.2956 15.6932 85.966 15.7671 85.6138 15.8352C85.2729 15.9034 84.9149 15.9659 84.5399 16.0227C83.8126 16.1364 83.216 16.3239 82.7501 16.5852C82.2956 16.8352 81.9547 17.1477 81.7274 17.5227C81.5115 17.8864 81.4035 18.2955 81.4035 18.75C81.4035 19.4773 81.6592 20.0341 82.1706 20.4205C82.682 20.8068 83.3354 21 84.1308 21Z" fill="#2ECEA4"/>
</svg>
