<?xml version="1.0" encoding="utf-8"?>
<!-- Generator: Adobe Illustrator 15.1.0, SVG Export Plug-In . SVG Version: 6.00 Build 0)  -->
<!DOCTYPE svg PUBLIC "-//W3C//DTD SVG 1.1//EN" "http://www.w3.org/Graphics/SVG/1.1/DTD/svg11.dtd">
<svg version="1.1" id="Calque_1" xmlns="http://www.w3.org/2000/svg" xmlns:xlink="http://www.w3.org/1999/xlink" x="0px" y="0px"
	 width="416.696px" height="476.225px" viewBox="89.292 182.833 416.696 476.225"
	 enable-background="new 89.292 182.833 416.696 476.225" xml:space="preserve">
<path fill="#3DACAA" d="M178.584,659.057h297.64c16.463,0,29.764-13.301,29.764-29.764c0-16.464-13.301-29.765-29.764-29.765V537.49
	c17.301-6.139,29.764-22.695,29.764-42.135V227.479c0-24.648-19.998-44.646-44.646-44.646h-44.645v157.563
	c0,11.627-9.395,21.021-21.021,21.021c-5.58,0-10.975-2.232-14.883-6.139l-38.506-38.507l-38.508,38.507
	c-3.906,3.906-9.301,6.139-14.882,6.139c-11.626,0-21.021-9.394-21.021-21.021V182.833h-89.292
	c-49.296,0-89.292,39.996-89.292,89.292v297.641C89.292,619.062,129.288,659.057,178.584,659.057z M148.82,569.765
	c0-16.463,13.301-29.764,29.764-29.764h238.113v59.527H178.584C162.121,599.529,148.82,586.228,148.82,569.765z"/>
</svg>
