<?xml version="1.0" encoding="utf-8"?>
<!-- Generator: Adobe Illustrator 15.1.0, SVG Export Plug-In . SVG Version: 6.00 Build 0)  -->
<!DOCTYPE svg PUBLIC "-//W3C//DTD SVG 1.1//EN" "http://www.w3.org/Graphics/SVG/1.1/DTD/svg11.dtd">
<svg version="1.1" id="Calque_1" xmlns="http://www.w3.org/2000/svg" xmlns:xlink="http://www.w3.org/1999/xlink" x="0px" y="0px"
	 width="595.281px" height="357.168px" viewBox="0 242.361 595.281 357.168" enable-background="new 0 242.361 595.281 357.168"
	 xml:space="preserve">
<path fill="#2CA88C" d="M133.938,435.827c0-43.995-31.81-80.549-73.666-87.896c6.697-59.436,57.11-105.569,118.312-105.569h238.113
	c61.201,0,111.615,46.134,118.311,105.569c-41.855,7.44-73.666,43.901-73.666,87.896v29.765H133.938V435.827z M0,540.002V435.827
	c0-24.648,19.998-44.646,44.646-44.646s44.646,19.997,44.646,44.646v74.41h416.696v-74.41c0-24.648,19.998-44.646,44.646-44.646
	s44.646,19.997,44.646,44.646v104.175c0,32.833-26.695,59.527-59.529,59.527H59.528C26.695,599.529,0,572.835,0,540.002z"/>
</svg>
