<?xml version="1.0" encoding="utf-8"?>
<!-- Generator: Adobe Illustrator 15.1.0, SVG Export Plug-In . SVG Version: 6.00 Build 0)  -->
<!DOCTYPE svg PUBLIC "-//W3C//DTD SVG 1.1//EN" "http://www.w3.org/Graphics/SVG/1.1/DTD/svg11.dtd">
<svg version="1.1" id="Calque_1" xmlns="http://www.w3.org/2000/svg" xmlns:xlink="http://www.w3.org/1999/xlink" x="0px" y="0px"
	 width="450.208px" height="450.052px" viewBox="73.002 195.966 450.208 450.052"
	 enable-background="new 73.002 195.966 450.208 450.052" xml:space="preserve">
<path fill="#A6B481" d="M302.384,203.854c-82.782,16.742-139.984,58.97-176.724,115.242c-21.672,33.112-35.438,70.038-43.437,107.43
	l211.604,211.511c82.78-16.742,139.983-58.971,176.817-115.243c21.672-33.112,35.438-70.038,43.436-107.43L302.384,203.854z
	 M521.894,360.208c2.977-39.344,0.65-77.479-4.465-110.405c-4.094-25.858-24.928-44.646-49.391-47.995
	c-39.994-5.487-76.455-6.976-109.568-5.022l163.424,163.33V360.208z M237.833,645.199L74.317,481.775
	c-2.976,39.345-0.651,77.479,4.465,110.406c4.092,25.857,24.927,44.646,49.39,47.994c39.995,5.488,76.456,6.977,109.569,5.023
	H237.833z M312.056,315.841c8.744-8.743,22.883-8.743,31.531,0l59.529,59.528c8.742,8.743,8.742,22.881,0,31.531
	c-8.744,8.65-22.881,8.743-31.531,0l-59.529-59.528C303.314,338.629,303.314,324.491,312.056,315.841z M252.529,375.369
	c8.743-8.743,22.881-8.743,31.531,0l59.527,59.528c8.744,8.743,8.744,22.881,0,31.531c-8.742,8.65-22.881,8.743-31.531,0
	L252.529,406.9C243.786,398.157,243.786,384.019,252.529,375.369z M193.001,434.897c8.743-8.743,22.881-8.743,31.531,0
	l59.528,59.528c8.743,8.743,8.743,22.881,0,31.531c-8.744,8.649-22.881,8.743-31.531,0l-59.528-59.528
	C184.258,457.685,184.258,443.548,193.001,434.897z"/>
</svg>
