<?xml version="1.0" encoding="utf-8"?>
<!-- Generator: Adobe Illustrator 15.1.0, SVG Export Plug-In . SVG Version: 6.00 Build 0)  -->
<!DOCTYPE svg PUBLIC "-//W3C//DTD SVG 1.1//EN" "http://www.w3.org/Graphics/SVG/1.1/DTD/svg11.dtd">
<svg version="1.1" id="Calque_1" xmlns="http://www.w3.org/2000/svg" xmlns:xlink="http://www.w3.org/1999/xlink" x="0px" y="0px"
	 width="75.743px" height="86.566px" viewBox="0.624 0.479 75.743 86.566" enable-background="new 0.624 0.479 75.743 86.566"
	 xml:space="preserve">
<path fill="#7BB8A1" d="M0.624,11.3c0-5.968,4.853-10.821,10.819-10.821h54.104c5.968,0,10.819,4.853,10.819,10.821v64.924
	c0,5.969-4.852,10.821-10.819,10.821H11.444c-5.967,0-10.819-4.851-10.819-10.821V11.3z M43.906,73.52
	c0-2.993-2.417-5.411-5.41-5.411c-2.992,0-5.409,2.418-5.409,5.411c0,2.992,2.417,5.411,5.409,5.411
	C41.49,78.931,43.906,76.51,43.906,73.52z M65.548,11.3H11.444v48.693h54.104V11.3L65.548,11.3z"/>
</svg>
