<?xml version="1.0" encoding="utf-8"?>
<!-- Generator: Adobe Illustrator 15.1.0, SVG Export Plug-In . SVG Version: 6.00 Build 0)  -->
<!DOCTYPE svg PUBLIC "-//W3C//DTD SVG 1.1//EN" "http://www.w3.org/Graphics/SVG/1.1/DTD/svg11.dtd">
<svg version="1.1" id="Calque_1" xmlns="http://www.w3.org/2000/svg" xmlns:xlink="http://www.w3.org/1999/xlink" x="0px" y="0px"
	 width="76.075px" height="81.51px" viewBox="0 0 76.075 81.51" enable-background="new 0 0 76.075 81.51" xml:space="preserve">
<path fill="#2ECEA4" d="M21.736,0c3.006,0,5.434,2.43,5.434,5.435v5.434h21.736V5.435C48.905,2.43,51.335,0,54.34,0
	c3.006,0,5.434,2.43,5.434,5.435v5.434h5.435c5.993,0,10.867,4.873,10.867,10.867v48.905c0,5.995-4.874,10.869-10.867,10.869h-54.34
	C4.874,81.51,0,76.636,0,70.641V21.736c0-5.995,4.874-10.867,10.868-10.867h5.434V5.435C16.302,2.43,18.729,0,21.736,0z
	 M10.868,40.755v5.435c0,1.494,1.222,2.717,2.716,2.717h5.434c1.495,0,2.717-1.223,2.717-2.717v-5.435
	c0-1.494-1.223-2.717-2.717-2.717h-5.434C12.09,38.038,10.868,39.261,10.868,40.755z M32.603,40.755v5.435
	c0,1.494,1.223,2.717,2.717,2.717h5.435c1.494,0,2.717-1.223,2.717-2.717v-5.435c0-1.494-1.223-2.717-2.717-2.717H35.32
	C33.826,38.038,32.603,39.261,32.603,40.755z M57.057,38.038c-1.494,0-2.717,1.223-2.717,2.717v5.435
	c0,1.494,1.223,2.717,2.717,2.717h5.435c1.494,0,2.717-1.223,2.717-2.717v-5.435c0-1.494-1.223-2.717-2.717-2.717H57.057z
	 M10.868,62.491v5.435c0,1.494,1.222,2.715,2.716,2.715h5.434c1.495,0,2.717-1.221,2.717-2.715v-5.435
	c0-1.494-1.223-2.718-2.717-2.718h-5.434C12.09,59.773,10.868,60.997,10.868,62.491z M35.32,59.773
	c-1.494,0-2.717,1.224-2.717,2.718v5.435c0,1.494,1.223,2.715,2.717,2.715h5.435c1.494,0,2.717-1.221,2.717-2.715v-5.435
	c0-1.494-1.223-2.718-2.717-2.718H35.32z M54.34,62.491v5.435c0,1.494,1.223,2.715,2.717,2.715h5.435
	c1.494,0,2.717-1.221,2.717-2.715v-5.435c0-1.494-1.223-2.718-2.717-2.718h-5.435C55.563,59.773,54.34,60.997,54.34,62.491z"/>
</svg>
