<?xml version="1.0" encoding="utf-8"?>
<!-- Generator: Adobe Illustrator 15.1.0, SVG Export Plug-In . SVG Version: 6.00 Build 0)  -->
<!DOCTYPE svg PUBLIC "-//W3C//DTD SVG 1.1//EN" "http://www.w3.org/Graphics/SVG/1.1/DTD/svg11.dtd">
<svg version="1.1" id="Calque_1" xmlns="http://www.w3.org/2000/svg" xmlns:xlink="http://www.w3.org/1999/xlink" x="0px" y="0px"
	 width="75.754px" height="86.577px" viewBox="0.326 0.567 75.754 86.577" enable-background="new 0.326 0.567 75.754 86.577"
	 xml:space="preserve">
<path fill="#2CA88C" d="M26.029,43.856V13.114c-4.143,3.466-6.764,8.692-6.764,14.508v16.234H26.029z M34.147,43.856h8.115V9.123
	c-1.303-0.288-2.672-0.439-4.058-0.439c-1.388,0-2.757,0.151-4.058,0.439V43.856z M50.379,13.114v30.742h6.764V27.622
	C57.143,21.805,54.522,16.597,50.379,13.114z M5.737,43.856h5.411V27.622c0-14.948,12.106-27.055,27.057-27.055
	c14.948,0,27.055,12.107,27.055,27.055v16.234h5.411c2.994,0,5.41,2.418,5.41,5.41v10.823c0,2.992-2.418,5.41-5.41,5.41v16.234
	c0,2.992-2.418,5.409-5.411,5.409c-2.992,0-5.41-2.418-5.41-5.409V65.5h-43.29v16.234c0,2.992-2.418,5.409-5.41,5.409
	c-2.993,0-5.412-2.418-5.412-5.409V65.5c-2.992,0-5.41-2.419-5.41-5.41V49.268C0.326,46.274,2.744,43.856,5.737,43.856z"/>
</svg>
