<?xml version="1.0" encoding="utf-8"?>
<!-- Generator: Adobe Illustrator 15.1.0, SVG Export Plug-In . SVG Version: 6.00 Build 0)  -->
<!DOCTYPE svg PUBLIC "-//W3C//DTD SVG 1.1//EN" "http://www.w3.org/Graphics/SVG/1.1/DTD/svg11.dtd">
<svg version="1.1" id="Calque_1" xmlns="http://www.w3.org/2000/svg" xmlns:xlink="http://www.w3.org/1999/xlink" x="0px" y="0px"
	 width="76.028px" height="86.89px" viewBox="0 0 76.028 86.89" enable-background="new 0 0 76.028 86.89" xml:space="preserve">
<path fill="#7BB8A1" d="M0,10.861C0,4.871,4.871,0,10.861,0h54.305c5.991,0,10.861,4.871,10.861,10.861v65.167
	c0,5.991-4.87,10.861-10.861,10.861H10.861C4.871,86.89,0,82.02,0,76.028V10.861z M43.444,73.313c0-3.003-2.426-5.43-5.43-5.43
	s-5.43,2.427-5.43,5.43c0,3.004,2.426,5.432,5.43,5.432S43.444,76.316,43.444,73.313z M65.167,10.861H10.861v48.875h54.305V10.861z"
	/>
</svg>
