<?xml version="1.0" encoding="utf-8"?>
<!-- Generator: Adobe Illustrator 15.1.0, SVG Export Plug-In . SVG Version: 6.00 Build 0)  -->
<!DOCTYPE svg PUBLIC "-//W3C//DTD SVG 1.1//EN" "http://www.w3.org/Graphics/SVG/1.1/DTD/svg11.dtd">
<svg version="1.1" id="Calque_1" xmlns="http://www.w3.org/2000/svg" xmlns:xlink="http://www.w3.org/1999/xlink" x="0px" y="0px"
	 width="75.77px" height="86.595px" viewBox="0 0 75.77 86.595" enable-background="new 0 0 75.77 86.595" xml:space="preserve">
<path fill="#3DACAA" d="M16.236,86.595h54.121c2.993,0,5.412-2.419,5.412-5.413c0-2.992-2.419-5.411-5.412-5.411V64.49
	c3.146-1.117,5.412-4.128,5.412-7.662V8.119C75.77,3.637,72.133,0,67.651,0h-8.117v28.651c0,2.113-1.709,3.823-3.824,3.823
	c-1.014,0-1.994-0.406-2.705-1.117l-7.002-7.001L39,31.357c-0.709,0.711-1.69,1.117-2.706,1.117c-2.114,0-3.823-1.709-3.823-3.823V0
	H16.236C7.272,0,0,7.273,0,16.237v54.122C0,79.321,7.272,86.595,16.236,86.595z M10.824,70.357c0-2.992,2.419-5.41,5.412-5.41
	h43.298v10.823H16.236C13.243,75.771,10.824,73.352,10.824,70.357z"/>
</svg>
