<?xml version="1.0" encoding="utf-8"?>
<!-- Generator: Adobe Illustrator 15.1.0, SVG Export Plug-In . SVG Version: 6.00 Build 0)  -->
<!DOCTYPE svg PUBLIC "-//W3C//DTD SVG 1.1//EN" "http://www.w3.org/Graphics/SVG/1.1/DTD/svg11.dtd">
<svg version="1.1" id="Calque_1" xmlns="http://www.w3.org/2000/svg" xmlns:xlink="http://www.w3.org/1999/xlink" x="0px" y="0px"
	 width="76.075px" height="81.51px" viewBox="0 0 76.075 81.51" enable-background="new 0 0 76.075 81.51" xml:space="preserve">
<path fill="#2ECEA4" d="M20.393,0c2.261,0,4.079,1.818,4.079,4.078v6.798h27.193V4.078c0-2.26,1.818-4.078,4.078-4.078
	s4.078,1.818,4.078,4.078v6.798h5.438c6.001,0,10.878,4.877,10.878,10.876v48.945c0,6-4.877,10.877-10.878,10.877H10.876
	C4.877,81.575,0,76.698,0,70.698V21.753c0-6,4.878-10.876,10.877-10.876h5.438V4.078C16.314,1.818,18.133,0,20.393,0z
	 M20.393,19.034h-9.517c-1.496,0-2.72,1.224-2.72,2.719v8.158h59.822v-8.158c0-1.495-1.225-2.719-2.721-2.719H20.393z M8.157,38.069
	v32.63c0,1.495,1.224,2.72,2.72,2.72h54.382c1.496,0,2.721-1.225,2.721-2.72v-32.63H8.157z"/>
</svg>
