<?xml version="1.0" encoding="utf-8"?>
<!-- Generator: Adobe Illustrator 15.1.0, SVG Export Plug-In . SVG Version: 6.00 Build 0)  -->
<!DOCTYPE svg PUBLIC "-//W3C//DTD SVG 1.1//EN" "http://www.w3.org/Graphics/SVG/1.1/DTD/svg11.dtd">
<svg version="1.1" id="Calque_1" xmlns="http://www.w3.org/2000/svg" xmlns:xlink="http://www.w3.org/1999/xlink" x="0px" y="0px"
	 width="75.769px" height="86.596px" viewBox="58.47 -56.668 75.769 86.596" enable-background="new 58.47 -56.668 75.769 86.596"
	 xml:space="preserve">
<path fill="#3DACAA" d="M74.705,29.927h54.121c2.994,0,5.412-2.418,5.412-5.412c0-2.992-2.418-5.412-5.412-5.412V7.821
	c3.146-1.117,5.412-4.127,5.412-7.662v-48.708c0.002-4.481-3.635-8.119-8.117-8.119h-8.117v28.651c0,2.113-1.709,3.823-3.824,3.823
	c-1.015,0-1.994-0.406-2.705-1.117l-7.002-7.001l-7.003,7.001c-0.709,0.711-1.69,1.117-2.706,1.117
	c-2.114,0-3.823-1.709-3.823-3.823v-28.651H74.705c-8.964,0-16.235,7.273-16.235,16.237V13.69
	C58.47,22.653,65.741,29.927,74.705,29.927z M69.294,13.688c0-2.992,2.419-5.41,5.411-5.41h43.299v10.824H74.705
	C71.713,19.102,69.294,16.684,69.294,13.688z"/>
</svg>
