<?xml version="1.0" encoding="utf-8"?>
<!-- Generator: Adobe Illustrator 15.1.0, SVG Export Plug-In . SVG Version: 6.00 Build 0)  -->
<!DOCTYPE svg PUBLIC "-//W3C//DTD SVG 1.1//EN" "http://www.w3.org/Graphics/SVG/1.1/DTD/svg11.dtd">
<svg version="1.1" id="Calque_1" xmlns="http://www.w3.org/2000/svg" xmlns:xlink="http://www.w3.org/1999/xlink" x="0px" y="0px"
	 width="75.729px" height="86.595px" viewBox="135.135 -43.579 75.729 86.595"
	 enable-background="new 135.135 -43.579 75.729 86.595" xml:space="preserve">
<path fill="#2FA4B7" d="M175.019-43.579h-12.117c-4.181,0-7.573,3.392-7.573,7.571v8.345h17.669v-8.345
	C172.999-38.767,173.741-41.355,175.019-43.579z M155.329-20.089V0.103c0,3.172-1.498,6.169-4.038,8.079l-10.097,7.573
	c-3.817,2.855-6.059,7.354-6.059,12.117c0,8.359,6.784,15.145,15.146,15.145c2.429,0,4.812-0.584,6.94-1.688
	c-2.776-3.771-4.417-8.426-4.417-13.457c0-7.146,3.36-13.885,9.087-18.175l10.098-7.573c0.632-0.473,1.009-1.231,1.009-2.021
	v-20.193H155.329z M180.572-20.089V0.103c0,3.172-1.497,6.169-4.039,8.079l-10.097,7.571c-3.817,2.857-6.059,7.355-6.059,12.117
	c0,8.359,6.784,15.145,15.146,15.145c3.28,0,6.468-1.057,9.088-3.027l18.174-13.633c5.079-3.814,8.077-9.795,8.077-16.151v-30.292
	H180.572z M210.864-27.662v-8.345c0-4.18-3.394-7.571-7.573-7.571h-15.146c-4.181,0-7.572,3.392-7.572,7.571v8.345H210.864z"/>
</svg>
