<?xml version="1.0" encoding="utf-8"?>
<!-- Generator: Adobe Illustrator 15.1.0, SVG Export Plug-In . SVG Version: 6.00 Build 0)  -->
<!DOCTYPE svg PUBLIC "-//W3C//DTD SVG 1.1//EN" "http://www.w3.org/Graphics/SVG/1.1/DTD/svg11.dtd">
<svg version="1.1" id="Calque_1" xmlns="http://www.w3.org/2000/svg" xmlns:xlink="http://www.w3.org/1999/xlink" x="0px" y="0px"
	 width="75.602px" height="86.5px" viewBox="0.274 -3.75 75.602 86.5" enable-background="new 0.274 -3.75 75.602 86.5"
	 xml:space="preserve">
<path fill="#A6B481" d="M32.789,1.212C18.702,6.455,9.82,15.465,4.925,26.378c-2.89,6.421-4.285,13.294-4.651,20.089L43.343,77.77
	c14.086-5.239,22.969-14.251,27.881-25.166c2.891-6.424,4.283-13.296,4.652-20.09L32.789,1.212z M75.716,22.603
	c-0.569-7.001-2.035-13.639-3.85-19.286c-1.438-4.432-5.62-7.157-10.016-7.065c-7.183,0.146-13.632,0.897-19.4,2.159l33.263,24.173
	L75.716,22.603z M33.697,80.586L0.417,56.397c0.571,7.001,2.037,13.64,3.851,19.284c1.438,4.434,5.622,7.159,10.015,7.066
	c7.183-0.145,13.632-0.896,19.399-2.16L33.697,80.586L33.697,80.586z M37.601,20.629c1.292-1.779,3.775-2.173,5.541-0.875
	l12.115,8.811c1.783,1.293,2.174,3.78,0.878,5.543c-1.298,1.763-3.778,2.171-5.541,0.875l-12.119-8.81
	C36.696,24.878,36.302,22.393,37.601,20.629z M28.79,32.744c1.294-1.78,3.778-2.171,5.542-0.876l12.117,8.812
	c1.779,1.298,2.169,3.779,0.877,5.545c-1.298,1.761-3.78,2.17-5.543,0.875l-12.118-8.812C27.885,36.993,27.494,34.509,28.79,32.744z
	 M19.979,44.864c1.293-1.781,3.779-2.172,5.542-0.877l12.117,8.81c1.78,1.294,2.173,3.782,0.878,5.546
	c-1.297,1.763-3.78,2.172-5.545,0.875l-12.117-8.813C19.074,49.112,18.681,46.628,19.979,44.864z"/>
</svg>
