<?xml version="1.0" encoding="utf-8"?>
<!-- Generator: Adobe Illustrator 15.1.0, SVG Export Plug-In . SVG Version: 6.00 Build 0)  -->
<!DOCTYPE svg PUBLIC "-//W3C//DTD SVG 1.1//EN" "http://www.w3.org/Graphics/SVG/1.1/DTD/svg11.dtd">
<svg version="1.1" id="Calque_1" xmlns="http://www.w3.org/2000/svg" xmlns:xlink="http://www.w3.org/1999/xlink" x="0px" y="0px"
	 width="75.917px" height="78.391px" viewBox="0 0 75.917 78.391" enable-background="new 0 0 75.917 78.391" xml:space="preserve">
<path fill="#A6B481" d="M37.229,1.989C23.168,5.413,13.659,13.027,7.747,22.91c-3.487,5.815-5.595,12.23-6.713,18.687l37.654,34.79
	c14.062-3.423,23.571-11.04,29.499-20.922c3.488-5.816,5.596-12.231,6.713-18.687L37.229,1.989z M75.865,27.283
	c0.247-6.757-0.409-13.271-1.506-18.875c-0.875-4.399-4.567-7.477-8.78-7.885C58.694-0.147,52.442-0.156,46.784,0.4l29.081,26.866
	V27.283z M29.148,77.99L0.051,51.108c-0.244,6.759,0.41,13.271,1.508,18.874c0.875,4.402,4.569,7.479,8.78,7.886
	c6.885,0.67,13.137,0.679,18.794,0.122H29.148L29.148,77.99z M39.641,21.098c1.437-1.556,3.857-1.651,5.398-0.212l10.592,9.791
	c1.557,1.438,1.652,3.86,0.214,5.399c-1.439,1.541-3.857,1.651-5.398,0.212l-10.594-9.792C38.296,25.059,38.2,22.638,39.641,21.098z
	 M29.849,31.69c1.438-1.556,3.858-1.651,5.399-0.212l10.593,9.792c1.555,1.44,1.649,3.858,0.213,5.4
	c-1.44,1.538-3.86,1.649-5.399,0.212L30.061,37.09C28.505,35.651,28.411,33.231,29.849,31.69z M20.057,42.285
	c1.438-1.557,3.859-1.651,5.399-0.214l10.593,9.793c1.556,1.437,1.651,3.858,0.213,5.399c-1.439,1.54-3.859,1.65-5.399,0.211
	l-10.594-9.791C18.713,46.245,18.618,43.825,20.057,42.285z"/>
</svg>
