<?xml version="1.0" encoding="utf-8"?>
<!-- Generator: Adobe Illustrator 15.1.0, SVG Export Plug-In . SVG Version: 6.00 Build 0)  -->
<!DOCTYPE svg PUBLIC "-//W3C//DTD SVG 1.1//EN" "http://www.w3.org/Graphics/SVG/1.1/DTD/svg11.dtd">
<svg version="1.1" id="Calque_1" xmlns="http://www.w3.org/2000/svg" xmlns:xlink="http://www.w3.org/1999/xlink" x="0px" y="0px"
	 width="76.149px" height="87.028px" viewBox="0 0 76.149 87.028" enable-background="new 0 0 76.149 87.028" xml:space="preserve">
<path fill="#2CA88C" d="M25.836,43.514V12.612c-4.164,3.484-6.799,8.737-6.799,14.584v16.318H25.836z M33.996,43.514h8.158V8.601
	c-1.309-0.289-2.685-0.442-4.079-0.442s-2.771,0.153-4.079,0.442V43.514z M50.313,12.612v30.902h6.799V27.196
	C57.112,21.349,54.478,16.114,50.313,12.612z M5.439,43.514h5.439V27.196C10.878,12.17,23.048,0,38.075,0
	c15.026,0,27.196,12.17,27.196,27.196v16.318h5.439c3.009,0,5.439,2.431,5.439,5.438v10.879c0,3.008-2.431,5.439-5.439,5.439v16.318
	c0,3.008-2.43,5.438-5.439,5.438c-3.008,0-5.439-2.431-5.439-5.438V65.271H16.318v16.318c0,3.008-2.431,5.438-5.439,5.438
	c-3.009,0-5.439-2.431-5.439-5.438V65.271C2.431,65.271,0,62.839,0,59.832V48.953C0,45.945,2.431,43.514,5.439,43.514z"/>
</svg>
