<?xml version="1.0" encoding="utf-8"?>
<!-- Generator: Adobe Illustrator 15.1.0, SVG Export Plug-In . SVG Version: 6.00 Build 0)  -->
<!DOCTYPE svg PUBLIC "-//W3C//DTD SVG 1.1//EN" "http://www.w3.org/Graphics/SVG/1.1/DTD/svg11.dtd">
<svg version="1.1" id="Calque_1" xmlns="http://www.w3.org/2000/svg" xmlns:xlink="http://www.w3.org/1999/xlink" x="0px" y="0px"
	 width="75.728px" height="80.774px" viewBox="0 0 75.728 80.774" enable-background="new 0 0 75.728 80.774" xml:space="preserve">
<path fill="#2FA4B7" d="M39.884,0H27.766c-4.18,0-7.573,3.392-7.573,7.572v2.524h17.669V7.572C37.863,4.812,38.605,2.224,39.884,0z
	 M20.193,17.669v20.193c0,3.171-1.498,6.169-4.038,8.079L6.058,53.513C2.241,56.369,0,60.866,0,65.63
	c0,8.36,6.784,15.145,15.146,15.145c2.429,0,4.812-0.583,6.941-1.688c-2.777-3.77-4.417-8.425-4.417-13.457
	c0-7.146,3.36-13.884,9.087-18.175l10.097-7.572c0.632-0.473,1.009-1.231,1.009-2.02V17.669H20.193z M45.436,17.669v20.193
	c0,3.171-1.497,6.169-4.039,8.079l-10.096,7.571c-3.818,2.856-6.059,7.354-6.059,12.117c0,8.36,6.784,15.145,15.146,15.145
	c3.281,0,6.468-1.057,9.088-3.028L67.65,64.114c5.079-3.815,8.077-9.796,8.077-16.153V17.669H45.436z M75.728,10.096V7.572
	c0-4.18-3.393-7.572-7.573-7.572H53.009c-4.181,0-7.573,3.392-7.573,7.572v2.524H75.728z"/>
</svg>
