<?xml version="1.0" encoding="utf-8"?>
<!-- Generator: Adobe Illustrator 15.1.0, SVG Export Plug-In . SVG Version: 6.00 Build 0)  -->
<!DOCTYPE svg PUBLIC "-//W3C//DTD SVG 1.1//EN" "http://www.w3.org/Graphics/SVG/1.1/DTD/svg11.dtd">
<svg version="1.1" id="Calque_1" xmlns="http://www.w3.org/2000/svg" xmlns:xlink="http://www.w3.org/1999/xlink" x="0px" y="0px"
	 width="185.226px" height="67.368px" viewBox="0 0 185.226 67.368" enable-background="new 0 0 185.226 67.368"
	 xml:space="preserve">
<g>
	<path fill="#2FA4B7" d="M32.818,45.342c-0.023-0.453-0.045-0.892-0.066-1.316c-0.021-0.424-0.042-0.834-0.063-1.23
		c-1.355,1.26-2.907,2.262-4.657,3.002c-1.75,0.739-3.644,1.162-5.681,1.266c-2.887,0.146-5.631-0.269-8.233-1.244
		c-2.603-0.975-4.932-2.444-6.989-4.412c-2.057-1.967-3.708-4.336-4.955-7.111c-1.247-2.774-1.958-5.887-2.132-9.339
		c-0.177-3.508,0.215-6.705,1.175-9.592c0.961-2.885,2.366-5.382,4.217-7.49c1.851-2.106,4.022-3.777,6.513-5.01
		c2.491-1.232,5.151-1.92,7.981-2.063c2.038-0.103,3.978,0.126,5.822,0.684c1.844,0.56,3.502,1.37,4.975,2.43
		c-0.023-0.453-0.044-0.877-0.064-1.273c-0.02-0.396-0.04-0.792-0.06-1.188c2.32-0.117,4.668-0.236,7.046-0.356
		c2.377-0.12,4.697-0.238,6.961-0.352c0.366,7.245,0.736,14.559,1.109,21.944c0.374,7.386,0.743,14.701,1.109,21.944
		c-2.264,0.115-4.584,0.232-6.96,0.353C37.487,45.106,35.138,45.225,32.818,45.342z M23.592,34.574
		c2.716-0.137,4.845-1.237,6.387-3.301c1.541-2.063,2.23-4.709,2.067-7.935c-0.163-3.226-1.115-5.773-2.854-7.643
		c-1.741-1.87-3.969-2.736-6.685-2.599c-2.774,0.141-4.918,1.214-6.433,3.219c-1.516,2.006-2.191,4.651-2.025,7.932
		c0.166,3.283,1.105,5.859,2.816,7.73S20.819,34.714,23.592,34.574z"/>
</g>
<g>
	<g>
		<path fill="#2ECEA4" d="M43.207,49.134c1.146-7.162,2.305-14.395,3.474-21.697c1.169-7.302,2.328-14.533,3.474-21.696
			c2.294,0.368,4.616,0.74,6.967,1.116c2.35,0.376,4.644,0.744,6.883,1.102c-0.063,0.392-0.121,0.755-0.176,1.092
			c-0.053,0.335-0.111,0.7-0.175,1.09c1.624-0.829,3.38-1.396,5.265-1.697c1.885-0.301,3.778-0.298,5.682,0.006
			c2.068,0.331,3.915,0.986,5.538,1.963c1.622,0.978,2.941,2.236,3.958,3.775c1.996-1,4.187-1.682,6.568-2.046
			c2.383-0.364,4.777-0.354,7.184,0.031c3.412,0.546,6.252,1.718,8.519,3.516c2.266,1.797,3.878,4.093,4.837,6.886
			c0.958,2.794,1.146,6.009,0.564,9.646c-0.717,4.478-1.441,9.009-2.177,13.597s-1.46,9.121-2.177,13.597
			c-2.238-0.358-4.533-0.726-6.883-1.103c-2.351-0.377-4.673-0.748-6.967-1.115C94.237,53,94.918,48.75,95.608,44.44
			c0.689-4.308,1.371-8.561,2.043-12.757c0.305-1.902,0.119-3.524-0.555-4.867c-0.676-1.341-1.965-2.165-3.866-2.469
			c-1.847-0.296-3.38,0.047-4.599,1.028c-1.219,0.981-1.988,2.479-2.311,4.494c-0.673,4.196-1.354,8.45-2.043,12.756
			c-0.689,4.311-1.371,8.562-2.043,12.758c-2.238-0.357-4.533-0.725-6.883-1.102s-4.672-0.748-6.967-1.115
			c0.672-4.197,1.354-8.449,2.043-12.758c0.69-4.309,1.371-8.561,2.043-12.758c0.305-1.901,0.119-3.524-0.555-4.866
			c-0.676-1.342-1.964-2.166-3.865-2.469c-1.848-0.296-3.38,0.047-4.598,1.027c-1.221,0.982-1.99,2.48-2.313,4.494
			c-0.672,4.197-1.354,8.45-2.043,12.757c-0.689,4.309-1.371,8.561-2.043,12.758c-2.238-0.359-4.532-0.727-6.882-1.103
			C47.824,49.874,45.501,49.502,43.207,49.134z"/>
	</g>
</g>
<g>
	<g>
		<path fill="#FFFFFF" d="M136.085,49.241c-0.029-0.451-0.057-0.891-0.084-1.314s-0.053-0.834-0.078-1.23
			c-1.339,1.278-2.877,2.3-4.617,3.063c-1.74,0.763-3.628,1.211-5.664,1.341c-2.884,0.185-5.633-0.193-8.248-1.134
			s-4.965-2.38-7.048-4.319s-3.766-4.287-5.049-7.045s-2.035-5.861-2.255-9.311c-0.225-3.505,0.125-6.707,1.047-9.606
			c0.922-2.897,2.295-5.413,4.117-7.545c1.823-2.131,3.972-3.831,6.445-5.096c2.476-1.265,5.125-1.988,7.954-2.168
			c2.036-0.13,3.979,0.073,5.83,0.607c1.851,0.536,3.52,1.323,5.006,2.364c-0.028-0.453-0.056-0.876-0.081-1.272
			c-0.025-0.396-0.051-0.792-0.076-1.188c2.318-0.148,4.666-0.298,7.041-0.45s4.693-0.3,6.955-0.444
			c0.463,7.239,0.93,14.548,1.4,21.928c0.472,7.38,0.938,14.69,1.4,21.929c-2.262,0.144-4.58,0.291-6.955,0.443
			C140.75,48.944,138.403,49.093,136.085,49.241z M126.718,38.596c2.714-0.174,4.828-1.301,6.342-3.386
			c1.514-2.083,2.168-4.738,1.961-7.961c-0.205-3.223-1.19-5.758-2.955-7.604c-1.766-1.846-4.004-2.683-6.719-2.509
			c-2.771,0.177-4.9,1.279-6.389,3.304c-1.49,2.026-2.13,4.68-1.92,7.958c0.209,3.28,1.182,5.844,2.918,7.693
			C121.692,37.938,123.946,38.774,126.718,38.596z"/>
	</g>
</g>
<path fill="#A6B481" d="M154.895,12.632c0.009,0,0.017,0,0.025,0l-0.032-0.002L154.895,12.632z"/>
<path fill="#A6B481" d="M153.993,17.228c0.096,0.019,0.195,0.037,0.289,0.056l-0.305-0.063
	C153.982,17.223,153.987,17.226,153.993,17.228z"/>
<g>
	<path fill="#A6B481" d="M152.009,35.766c0.91,1.346,2.741,1.697,4.086,0.788l2.012-1.36c1.346-0.911,1.699-2.742,0.788-4.087
		l-8.348-12.341c-0.909-1.345-2.74-1.699-4.085-0.789l-2.021,1.359c-1.346,0.91-1.699,2.742-0.788,4.086L152.009,35.766z"/>
	<path fill="#A6B481" d="M184.72,13.638l-8.355-12.344c-0.911-1.346-2.742-1.698-4.087-0.789l-2.013,1.361
		c-1.345,0.91-1.697,2.742-0.788,4.086l8.349,12.341c0.909,1.346,2.74,1.699,4.085,0.79l0.009,0.001l2.014-1.361
		C185.276,16.814,185.632,14.983,184.72,13.638z"/>
	<path fill="#A6B481" d="M171.138,22.605l0.17-0.115l3.379-2.285l-8.152-12.051l-12.849,8.689l8.152,12.052l3.38-2.285l0.383-0.259
		c0.059,0.086,0.123,0.168,0.18,0.255c2.702,4.226,4.053,9.187,3.844,14.12c-0.06,1.225-0.195,2.484-0.434,3.672
		c-0.253,1.254-0.584,2.437-1.013,3.619c-0.871,2.343-2.129,4.567-3.776,6.496c-3.264,3.885-7.961,6.634-13.063,7.564
		c-5.087,0.967-10.569,0.1-15.22-2.42c-4.672-2.498-8.419-6.705-10.545-11.673c-1.299-3.019-1.936-6.331-1.898-9.661
		c0.023-2.152,0.322-4.312,0.928-6.404c1.303-4.591,4-8.816,7.695-12.006c-0.078-0.089-0.15-0.184-0.232-0.27
		c-0.128-0.134-0.264-0.251-0.396-0.375c-4.042,2.978-7.256,7.191-8.971,12.033c-0.699,1.909-1.15,3.913-1.387,5.949
		c-0.461,3.961-0.057,8.055,1.283,11.875c1.976,5.807,6.1,10.896,11.425,14.153c5.318,3.265,11.8,4.69,18.104,3.852
		c6.297-0.816,12.321-3.845,16.798-8.505c2.232-2.332,4.109-5.039,5.466-8.011c0.672-1.478,1.242-3.042,1.634-4.596
		c0.418-1.617,0.696-3.22,0.804-4.87c0.504-6.579-1.568-13.311-5.6-18.442C171.198,22.673,171.166,22.642,171.138,22.605z"/>
</g>
</svg>
