<?xml version="1.0" encoding="utf-8"?>
<!-- Generator: Adobe Illustrator 15.1.0, SVG Export Plug-In . SVG Version: 6.00 Build 0)  -->
<!DOCTYPE svg PUBLIC "-//W3C//DTD SVG 1.1//EN" "http://www.w3.org/Graphics/SVG/1.1/DTD/svg11.dtd">
<svg version="1.1" id="Calque_1" xmlns="http://www.w3.org/2000/svg" xmlns:xlink="http://www.w3.org/1999/xlink" x="0px" y="0px"
	 width="184.226px" height="68.864px" viewBox="0 0 184.226 68.864" enable-background="new 0 0 184.226 68.864"
	 xml:space="preserve">
<g>
	<path fill="#2FA4B7" d="M32.817,45.342c-0.022-0.453-0.045-0.892-0.066-1.316c-0.021-0.424-0.041-0.834-0.063-1.23
		c-1.354,1.26-2.906,2.262-4.656,3.002c-1.75,0.739-3.644,1.162-5.681,1.266c-2.887,0.146-5.631-0.269-8.233-1.244
		c-2.603-0.975-4.932-2.444-6.989-4.412c-2.058-1.967-3.708-4.336-4.955-7.111c-1.247-2.773-1.958-5.887-2.132-9.34
		c-0.178-3.508,0.215-6.705,1.174-9.592c0.961-2.885,2.367-5.381,4.218-7.49c1.851-2.105,4.022-3.777,6.513-5.01
		c2.491-1.232,5.15-1.92,7.98-2.063c2.038-0.104,3.979,0.126,5.822,0.684c1.844,0.561,3.502,1.37,4.975,2.43
		c-0.023-0.452-0.045-0.877-0.064-1.273c-0.02-0.395-0.04-0.791-0.061-1.188c2.32-0.117,4.669-0.236,7.047-0.356
		c2.377-0.12,4.696-0.237,6.961-0.353c0.365,7.245,0.736,14.559,1.109,21.944s0.742,14.701,1.109,21.944
		c-2.265,0.115-4.584,0.232-6.961,0.353S35.138,45.225,32.817,45.342z M23.593,34.574c2.716-0.138,4.844-1.237,6.387-3.302
		c1.54-2.063,2.229-4.709,2.066-7.934c-0.163-3.227-1.115-5.773-2.854-7.644c-1.741-1.87-3.969-2.735-6.685-2.599
		c-2.773,0.141-4.918,1.215-6.434,3.219c-1.516,2.007-2.19,4.651-2.024,7.933c0.166,3.283,1.104,5.859,2.816,7.73
		S20.819,34.714,23.593,34.574z"/>
</g>
<g>
	<g>
		<path fill="#2ECEA4" d="M43.207,49.134c1.146-7.162,2.305-14.395,3.474-21.696c1.17-7.303,2.328-14.533,3.475-21.696
			c2.294,0.368,4.616,0.739,6.967,1.116c2.35,0.376,4.644,0.743,6.883,1.102c-0.063,0.393-0.121,0.755-0.176,1.092
			c-0.053,0.336-0.111,0.699-0.175,1.09c1.624-0.828,3.38-1.395,5.265-1.696c1.885-0.301,3.778-0.298,5.682,0.007
			c2.068,0.33,3.915,0.985,5.538,1.963c1.622,0.978,2.941,2.235,3.958,3.775c1.996-1,4.187-1.683,6.568-2.047
			c2.383-0.364,4.777-0.354,7.184,0.031c3.412,0.546,6.252,1.719,8.519,3.516c2.266,1.797,3.878,4.094,4.837,6.887
			c0.958,2.793,1.146,6.009,0.564,9.645c-0.717,4.479-1.441,9.01-2.177,13.598s-1.46,9.121-2.177,13.597
			c-2.238-0.358-4.533-0.726-6.883-1.103c-2.351-0.377-4.673-0.748-6.967-1.115C94.237,53,94.918,48.75,95.608,44.44
			c0.689-4.308,1.371-8.561,2.043-12.757c0.305-1.901,0.119-3.524-0.555-4.867c-0.676-1.341-1.965-2.165-3.866-2.469
			c-1.847-0.296-3.38,0.048-4.599,1.028s-1.988,2.479-2.311,4.494c-0.673,4.195-1.354,8.449-2.043,12.756
			c-0.689,4.311-1.371,8.562-2.043,12.758c-2.238-0.357-4.533-0.725-6.883-1.102s-4.672-0.748-6.967-1.115
			c0.672-4.197,1.354-8.449,2.043-12.758c0.69-4.309,1.371-8.561,2.043-12.758c0.305-1.901,0.119-3.523-0.555-4.866
			c-0.676-1.343-1.964-2.165-3.865-2.47c-1.848-0.295-3.38,0.048-4.598,1.027c-1.221,0.982-1.99,2.48-2.313,4.494
			c-0.672,4.197-1.354,8.45-2.043,12.758c-0.689,4.309-1.371,8.561-2.043,12.758c-2.238-0.359-4.532-0.727-6.882-1.103
			C47.823,49.874,45.501,49.502,43.207,49.134z"/>
	</g>
</g>
<g>
	<path fill="#FFFFFF" d="M136.085,49.241c-0.029-0.451-0.057-0.891-0.084-1.314s-0.053-0.834-0.078-1.23
		c-1.339,1.278-2.877,2.3-4.617,3.063c-1.74,0.763-3.628,1.211-5.664,1.341c-2.884,0.185-5.633-0.193-8.248-1.134
		s-4.965-2.38-7.048-4.319s-3.766-4.287-5.049-7.045s-2.035-5.861-2.255-9.311c-0.225-3.506,0.125-6.707,1.047-9.606
		c0.922-2.897,2.295-5.413,4.117-7.546c1.823-2.131,3.972-3.83,6.445-5.096c2.476-1.266,5.125-1.988,7.954-2.168
		c2.036-0.131,3.979,0.072,5.83,0.606c1.851,0.536,3.52,1.323,5.006,2.364c-0.028-0.453-0.056-0.877-0.081-1.273
		c-0.025-0.395-0.051-0.791-0.076-1.188c2.318-0.147,4.666-0.297,7.041-0.449s4.693-0.3,6.955-0.444
		c0.463,7.239,0.93,14.548,1.4,21.928c0.472,7.38,0.938,14.69,1.4,21.929c-2.262,0.144-4.58,0.291-6.955,0.443
		C140.75,48.944,138.403,49.093,136.085,49.241z M126.718,38.596c2.714-0.174,4.828-1.301,6.342-3.386
		c1.514-2.083,2.168-4.737,1.961-7.962c-0.205-3.223-1.19-5.758-2.955-7.604c-1.766-1.847-4.004-2.684-6.719-2.51
		c-2.771,0.177-4.9,1.279-6.389,3.304c-1.49,2.026-2.13,4.68-1.92,7.958c0.209,3.281,1.182,5.845,2.918,7.693
		C121.692,37.938,123.946,38.774,126.718,38.596z"/>
</g>
<path fill="#A6B481" d="M164.651,16.676l-4.15,5.631c5.58,4.121,8.926,10.717,8.926,17.643c0,12.083-9.801,21.914-21.885,21.914
	c-12.083,0-21.854-9.831-21.854-21.914c0-0.449,0.018-0.893,0.045-1.335c0.395-6.388,3.59-12.044,8.342-15.802
	c-0.488-1.217-1.156-2.275-2.01-3.168c-0.843-0.882-1.797-1.526-2.855-1.947c-5.219,4.313-8.896,10.408-10.094,17.338
	c-0.275,1.598-0.428,3.238-0.428,4.914c0,15.943,12.85,28.914,28.793,28.914S176.4,55.893,176.4,39.95
	C176.4,30.811,172.011,22.112,164.651,16.676z"/>
<path fill="#A6B481" d="M157.106,35.194l-2.012,1.36c-1.345,0.909-3.176,0.558-4.086-0.788l-8.356-12.345
	c-0.911-1.345-0.558-3.176,0.788-4.086l2.021-1.359c1.345-0.909,3.176-0.556,4.085,0.789l8.348,12.341
	C158.806,32.452,158.452,34.283,157.106,35.194z M164.218,26.612l-3.38,2.284l-8.152-12.052l12.849-8.689l8.152,12.051l-3.379,2.285
	 M180.91,19.083c-1.345,0.909-3.176,0.556-4.085-0.79l-8.349-12.341c-0.909-1.345-0.557-3.177,0.788-4.087l2.013-1.36
	c1.345-0.909,3.176-0.558,4.087,0.788l8.355,12.345c0.912,1.345,0.557,3.176-0.787,4.085l-2.014,1.361L180.91,19.083z"/>
</svg>
