<?xml version="1.0" encoding="utf-8"?>
<!-- Generator: Adobe Illustrator 15.1.0, SVG Export Plug-In . SVG Version: 6.00 Build 0)  -->
<!DOCTYPE svg PUBLIC "-//W3C//DTD SVG 1.1//EN" "http://www.w3.org/Graphics/SVG/1.1/DTD/svg11.dtd">
<svg version="1.1" id="Calque_1" xmlns="http://www.w3.org/2000/svg" xmlns:xlink="http://www.w3.org/1999/xlink" x="0px" y="0px"
	 width="446.46px" height="476.225px" viewBox="59.528 182.833 446.46 476.225"
	 enable-background="new 59.528 182.833 446.46 476.225" xml:space="preserve">
<path fill="#2FA4B7" d="M294.664,182.833H223.23c-24.648,0-44.646,19.998-44.646,44.646v14.882h104.174v-14.882
	C282.758,211.202,287.13,195.948,294.664,182.833z M178.584,287.007v119.057c0,18.695-8.836,36.368-23.811,47.622l-59.528,44.646
	c-22.509,16.835-35.717,43.344-35.717,71.434c0,49.297,39.996,89.292,89.292,89.292c14.324,0,28.369-3.441,40.925-9.952
	c-16.37-22.23-26.043-49.669-26.043-79.34c0-42.135,19.812-81.851,53.575-107.15l59.528-44.646c3.721-2.79,5.953-7.255,5.953-11.905
	V287.007H178.584z M327.404,287.007v119.057c0,18.695-8.836,36.368-23.811,47.622l-59.528,44.646
	c-22.509,16.835-35.717,43.344-35.717,71.434c0,49.297,39.995,89.292,89.292,89.292c19.346,0,38.135-6.231,53.576-17.858
	l107.15-80.363c29.949-22.509,47.621-57.761,47.621-95.244V287.007H327.404z M505.988,242.361v-14.882
	c0-24.648-19.998-44.646-44.646-44.646H372.05c-24.648,0-44.646,19.998-44.646,44.646v14.882H505.988z"/>
</svg>
